<?xml version="1.0" encoding="UTF-8"?> <svg xmlns="http://www.w3.org/2000/svg" xmlns:xlink="http://www.w3.org/1999/xlink" width="118" height="44" viewBox="0 0 118 44"><defs><path id="n85v6g5cza" d="M0 0.011L20.881 0.011 20.881 24.38 0 24.38z"></path><path id="9rur8qbpuc" d="M0.064 0.051L4.553 0.051 4.553 6.2 0.064 6.2z"></path><path id="ll9x19sbwe" d="M0 43.989L117.238 43.989 117.238 0.1 0 0.1z"></path></defs><g fill="none" fill-rule="evenodd"><g><g transform="translate(-484 -34) translate(484 34)"><path fill="#090F37" d="M97.232 24.17c-3.087 0-4.464-1.378-4.464-4.465v-8.86l3.221 1.86v6.969c0 1.142.327 1.49 1.399 1.49h3.1v3.005h-3.256zM89.809 10.845L90.681 7.875 92.768 7.875 92.768 4.516 95.989 2.656 95.989 7.875 99.991 7.875 99.991 10.845zM85.75 7.875l-4.618 16.3-4.643-16.3h-3.293l4.791 16.301h3.145l-.658 2.32c-.195.58-.737.969-1.349.969h-5.647v2.671h5.647c1.943 0 3.664-1.164 4.285-3.002l5.632-19.259H85.75z"></path><g transform="translate(0 .09)"><mask id="9b3gs3ismb" fill="#fff"><use xlink:href="#n85v6g5cza"></use></mask><path fill="#090F37" d="M11.571 21.241c-4.623 0-8.383-4.14-8.383-9.046 0-4.905 3.76-9.045 8.383-9.045 2.445 0 4.648 1.158 6.182 2.975l2.846-1.643C18.456 1.754 15.205.01 11.57.01 5.811.01 1.016 4.389.071 10.124l3.12 1.802L0 13.77c.742 5.977 5.646 10.61 11.571 10.61 3.798 0 7.177-1.904 9.31-4.846l-2.834-1.636c-1.538 2.027-3.87 3.343-6.476 3.343" mask="url(#9b3gs3ismb)"></path></g><path fill="#090F37" d="M30.105 10.317L30.106 10.317M70.488 8.856c-1.205-.979-2.779-1.319-4.302-1.319-2.181.024-4.478.951-5.896 2.65L57.914 8.81v15.36h2.967l.003-8.966c0-2.829 1.653-5.035 4.648-5.035 1.493-.044 2.962.497 3.675 1.88.652 1.262.616 2.716.616 4.1v8.021h2.967v-7.233c0-2.821.107-6.123-2.302-8.08M50.769 20.774l2.191 1.265c-1.06 1.174-2.286 2-3.706 2.24-3.198.539-7.058-.597-8.66-3.812-1.418-2.844-1.338-6.92.378-9.621 1.916-3.016 5.916-3.954 9.211-2.896 1.304.418 2.498 1.281 3.29 2.231L55.85 8.81v17.02c0 2.98-1.328 4.307-4.307 4.307h-6.296v-2.672h6.14c1.147 0 1.573-.425 1.573-1.571l.001-10.696c0-3.277-2.768-5.06-5.06-5.06-2.29 0-5.105 1.654-5.105 5.938 0 3.52 2.224 5.724 4.93 5.724 1.026 0 2.081-.313 3.044-1.025M35.04 16.152c-.089 3.407-1.874 5.572-4.94 5.625-3.067-.053-4.852-2.218-4.941-5.625-.09-3.406 1.894-5.834 4.94-5.835 3.048.001 5.03 2.429 4.942 5.835M31.692 7.55L30.1 10.317 28.508 7.55c-2.702.43-6.525 2.46-6.525 8.411 0 5.95 3.788 8.51 8.117 8.51 4.329 0 8.117-2.56 8.117-8.51 0-5.95-3.823-7.98-6.525-8.411M104.298 14.403l1.665 2.884h11.179c.153-1.06.043-2.449-.089-3.294-.512-3.281-3.101-6.378-7.978-6.378-5.651 0-8.119 3.88-8.119 8.428 0 4.548 2.544 8.422 8.119 8.422 2.607 0 4.826-.52 6.832-3.402l-2.765-1.595c-.872 1.368-2.253 2.16-4.063 2.16-1.94 0-4.946-1.21-4.946-5.588 0-3.681 2.11-5.763 4.946-5.763 2.383 0 4.254 1.47 4.79 4.126h-9.571zM.477 42.14L1.397 42.14 1.397 39.698 3.891 39.698 3.891 38.907 1.397 38.907 1.397 37.256 4.579 37.256 4.579 36.464.477 36.464zM8.268 40.812c-.097.226-.235.398-.412.516-.178.117-.396.176-.654.176s-.477-.059-.658-.176c-.18-.118-.32-.29-.417-.516-.098-.227-.146-.5-.146-.822 0-.326.048-.602.146-.825.097-.224.236-.394.417-.512.18-.117.4-.176.658-.176s.476.059.654.176c.177.118.315.288.412.512.098.223.147.499.147.825 0 .322-.05.595-.147.822m.043-2.791c-.32-.178-.69-.267-1.11-.267-.418 0-.787.09-1.108.267-.322.178-.574.434-.757.77-.184.335-.275.735-.275 1.2 0 .464.091.864.275 1.2.183.334.435.591.757.769.32.178.69.266 1.109.266.418 0 .788-.088 1.11-.266.32-.178.571-.435.752-.77.18-.335.27-.735.27-1.2 0-.464-.09-.864-.27-1.2-.18-.335-.432-.591-.753-.769M12.904 37.754c-.333 0-.612.073-.839.22-.226.146-.397.36-.512.64l-.086-.774h-.782v4.3h.92v-2.279c0-.292.056-.533.168-.722.112-.19.253-.331.425-.426.172-.094.347-.142.525-.142.132 0 .237.008.314.022.077.014.148.033.21.056l.13-.809c-.058-.028-.13-.05-.215-.064-.086-.014-.172-.022-.258-.022M20.394 37.926c-.24-.114-.499-.172-.774-.172-.19 0-.381.03-.576.09-.195.06-.373.154-.533.28-.16.126-.287.284-.379.473-.131-.28-.328-.491-.589-.632-.26-.14-.546-.21-.855-.21-.281 0-.546.065-.796.197s-.449.336-.598.61l-.043-.722h-.817v4.3h.92v-2.287c0-.321.058-.58.173-.774.114-.195.258-.338.43-.43.172-.092.344-.138.516-.138.258 0 .47.078.636.232.166.155.25.408.25.757v2.64h.92v-2.339c0-.28.051-.517.154-.71.104-.191.24-.336.409-.434.169-.097.354-.146.555-.146.258 0 .47.078.636.232.166.155.25.408.25.757v2.64h.92v-2.786c0-.367-.075-.668-.224-.903-.15-.235-.344-.41-.585-.525M23.43 39.56c.025-.143.061-.274.112-.39.097-.227.237-.398.421-.513.183-.114.399-.172.645-.172.338 0 .605.105.8.314.171.184.267.438.288.761H23.43zm2.262-1.548c-.293-.172-.648-.258-1.067-.258-.407 0-.77.09-1.092.267-.321.178-.572.434-.752.77-.181.335-.271.735-.271 1.2 0 .464.09.864.27 1.2.181.334.435.591.762.769.326.178.705.266 1.135.266.286 0 .55-.04.791-.12.24-.08.449-.196.624-.348.174-.152.313-.331.417-.538l-.731-.344c-.104.195-.244.347-.422.456-.178.109-.41.163-.696.163-.258 0-.482-.057-.671-.172-.19-.114-.336-.283-.439-.507-.073-.159-.119-.343-.14-.55h3.15c.012-.07.02-.15.026-.241.006-.092.009-.19.009-.293 0-.378-.078-.716-.233-1.014-.154-.298-.378-.534-.67-.706zM30.164 37.754c-.333 0-.613.073-.839.22-.226.146-.397.36-.512.64l-.086-.774h-.782v4.3h.92v-2.279c0-.292.056-.533.168-.722.111-.19.253-.331.425-.426.172-.094.347-.142.525-.142.132 0 .236.008.314.022.077.014.147.033.21.056l.13-.809c-.058-.028-.13-.05-.215-.064-.086-.014-.173-.022-.258-.022M33.07 41.495c-.172 0-.295-.04-.37-.12-.074-.08-.111-.226-.111-.439v-5.03h-.92v5.108c0 .413.09.718.27.916.18.197.463.296.847.296.127 0 .253-.012.379-.038s.238-.062.335-.108l.103-.688c-.108.04-.199.068-.27.082-.072.014-.16.021-.263.021"></path><g transform="translate(33.6 37.79)"><mask id="iq33tzov4d" fill="#fff"><use xlink:href="#9rur8qbpuc"></use></mask><path fill="#090F37" d="M2.695 2.674l-.284.886-.249-.809-.954-2.7H.176l1.341 3.26.456 1.066-.19.464c-.097.247-.207.412-.33.495-.124.083-.263.124-.418.124-.143 0-.276-.023-.4-.068-.123-.046-.239-.115-.348-.207L.064 5.9c.132.092.285.165.46.22.175.054.365.081.572.081.252 0 .473-.043.662-.129.19-.086.357-.227.503-.421.146-.195.282-.46.408-.792L4.553.051h-.955l-.903 2.623z" mask="url(#iq33tzov4d)"></path></g><path fill="#090F37" d="M44.388 40.55c0 .171-.03.32-.09.442-.06.124-.145.224-.254.301-.109.078-.23.134-.366.168-.134.034-.273.052-.417.052-.206 0-.37-.048-.494-.142-.123-.095-.185-.222-.185-.383 0-.166.06-.292.18-.378.121-.086.302-.152.542-.198l1.084-.223v.36zm.912.653v-1.918c0-.35-.077-.636-.228-.86-.152-.223-.36-.391-.624-.503-.264-.112-.567-.168-.912-.168-.504 0-.915.106-1.234.319-.318.212-.531.493-.64.842l.774.327c.086-.27.22-.464.404-.585.183-.12.404-.18.662-.18.275 0 .492.079.65.236.157.158.236.38.236.667v.164l-1.53.3c-.385.075-.682.215-.89.422-.21.206-.315.47-.315.79 0 .259.062.475.185.65.123.175.292.305.507.391.215.086.458.13.727.13.218 0 .433-.037.645-.108.212-.072.399-.18.56-.327.063-.059.117-.125.164-.196.02.078.05.15.089.213.083.135.198.235.344.301.146.066.31.1.494.1.201 0 .367-.032.5-.095l.05-.637c-.097.029-.197.043-.3.043-.212 0-.318-.106-.318-.318zM52.008 40.248L51.664 41.366 51.32 40.24 49.995 36.464 49.015 36.464 51.122 42.14 52.197 42.14 54.304 36.464 53.332 36.464zM55.611 39.56c.025-.143.062-.274.112-.39.097-.227.238-.398.421-.513.184-.114.399-.172.645-.172.338 0 .605.105.8.314.171.184.267.438.288.761h-2.266zm2.262-1.548c-.293-.172-.648-.258-1.067-.258-.407 0-.77.09-1.092.267-.321.178-.572.434-.752.77-.18.335-.271.735-.271 1.2 0 .464.09.864.27 1.2.181.334.435.591.762.769.327.178.705.266 1.135.266.287 0 .55-.04.791-.12.241-.08.449-.196.624-.348.175-.152.314-.331.417-.538l-.731-.344c-.103.195-.244.347-.422.456-.177.109-.41.163-.696.163-.258 0-.482-.057-.671-.172-.19-.114-.335-.283-.439-.507-.073-.159-.119-.343-.14-.55h3.15c.012-.07.02-.15.026-.241.006-.092.009-.19.009-.293 0-.378-.078-.716-.232-1.014-.155-.298-.379-.534-.671-.706zM62.345 37.754c-.333 0-.612.073-.839.22-.226.146-.397.36-.511.64l-.086-.774h-.783v4.3h.92v-2.279c0-.292.056-.533.168-.722.112-.19.254-.331.426-.426.172-.094.346-.142.524-.142.132 0 .237.008.314.022.077.014.148.033.21.056l.13-.809c-.058-.028-.13-.05-.215-.064-.086-.014-.172-.022-.258-.022M64.34 35.974c-.201 0-.354.049-.46.146-.106.098-.16.238-.16.422 0 .183.054.325.16.426.106.1.259.15.46.15.195 0 .345-.05.451-.15.106-.1.16-.243.16-.426 0-.184-.054-.324-.16-.422-.106-.097-.256-.146-.451-.146"></path><mask id="hrg46c6dhf" fill="#fff"><use xlink:href="#ll9x19sbwe"></use></mask><path fill="#090F37" d="M63.875 42.14L64.796 42.14 64.796 37.84 63.875 37.84zM69.556 37.93c-.244-.117-.518-.176-.822-.176-.235 0-.457.038-.666.112-.21.075-.39.194-.542.357-.098.106-.18.23-.248.37l-.04-.753h-.817v4.3h.92v-2.287c0-.327.059-.588.176-.783.118-.195.266-.337.443-.425.178-.09.361-.134.55-.134.264 0 .484.082.659.245.174.164.262.458.262.882v2.502h.92v-2.786c0-.361-.072-.66-.215-.894-.143-.235-.337-.412-.58-.53M74.16 41.388c-.114.049-.249.073-.403.073-.19 0-.34-.049-.452-.146-.112-.098-.168-.252-.168-.465v-2.287h1.48v-.723h-1.48v-1.264l-.92.258v1.006h-.825v.723h.825v2.442c.006.293.066.529.18.71.115.18.276.31.482.391.207.08.433.12.68.12.235 0 .448-.033.64-.099.193-.065.354-.156.486-.27l-.206-.671c-.098.086-.204.153-.318.202M81.432 41.113c-.094.123-.214.218-.357.283-.143.066-.312.1-.507.1-.253 0-.47-.058-.654-.173-.183-.114-.324-.283-.421-.507-.098-.224-.146-.496-.146-.817 0-.327.047-.602.141-.826.095-.223.234-.394.418-.511.183-.118.404-.177.662-.177.263 0 .477.07.64.211.164.14.283.343.357.606l.869-.344c-.086-.235-.212-.444-.378-.627-.167-.184-.372-.326-.615-.426-.244-.1-.538-.15-.882-.15-.413 0-.781.088-1.105.266-.324.178-.576.434-.757.77-.18.335-.27.735-.27 1.2 0 .464.09.864.27 1.199.18.335.435.592.761.77.327.178.703.266 1.127.266.327 0 .616-.053.869-.159.252-.106.463-.255.632-.447.169-.192.293-.417.374-.675l-.834-.284c-.035.178-.1.329-.194.452M86.657 40.812c-.098.226-.236.398-.413.516-.178.117-.396.176-.654.176s-.477-.059-.658-.176c-.18-.118-.32-.29-.417-.516-.097-.227-.146-.5-.146-.822 0-.326.049-.602.146-.825.098-.224.237-.394.417-.512.18-.117.4-.176.658-.176s.476.059.654.176c.177.118.315.288.413.512.097.223.146.499.146.825 0 .322-.049.595-.146.822m.043-2.791c-.322-.178-.691-.267-1.11-.267-.418 0-.788.09-1.11.267-.32.178-.573.434-.756.77-.184.335-.275.735-.275 1.2 0 .464.091.864.275 1.2.183.334.436.591.757.769.32.178.69.266 1.11.266.418 0 .787-.088 1.109-.266.32-.178.571-.435.752-.77.18-.335.27-.735.27-1.2 0-.464-.09-.864-.27-1.2-.18-.335-.431-.591-.752-.769M95.033 37.926c-.24-.114-.499-.172-.774-.172-.19 0-.382.03-.576.09-.195.06-.373.154-.534.28-.16.126-.286.284-.378.473-.132-.28-.328-.491-.59-.632-.26-.14-.545-.21-.855-.21-.28 0-.546.065-.795.197-.25.132-.449.336-.598.61l-.043-.722h-.817v4.3h.92v-2.287c0-.321.057-.58.172-.774.115-.195.258-.338.43-.43.172-.092.344-.138.516-.138.258 0 .47.078.637.232.166.155.25.408.25.757v2.64h.92v-2.339c0-.28.05-.517.154-.71.103-.191.24-.336.409-.434.169-.097.353-.146.554-.146.258 0 .47.078.637.232.166.155.25.408.25.757v2.64h.92v-2.786c0-.367-.075-.668-.224-.903-.15-.235-.344-.41-.585-.525M100.403 41.083c-.209.263-.5.395-.873.395-.24 0-.45-.06-.627-.18-.178-.12-.316-.293-.413-.516-.098-.224-.146-.488-.146-.792 0-.31.05-.574.15-.795.1-.22.241-.393.422-.516.18-.123.39-.185.632-.185.367 0 .653.133.86.4.206.266.31.632.31 1.096 0 .465-.105.829-.315 1.093m.306-3.062c-.287-.178-.605-.267-.955-.267-.258 0-.494.05-.71.147-.214.097-.394.232-.537.404-.088.105-.16.222-.22.347l-.047-.812h-.816v6.106h.92V41.43c.109.198.258.367.447.508.258.192.57.288.937.288.356 0 .678-.088.968-.266.29-.178.519-.435.688-.77.169-.335.254-.738.254-1.208s-.084-.87-.25-1.2c-.166-.33-.393-.583-.68-.761M105.482 40.55c0 .171-.03.32-.09.442-.06.124-.145.224-.254.301-.11.078-.231.134-.366.168-.134.034-.274.052-.417.052-.206 0-.371-.048-.494-.142-.124-.095-.185-.222-.185-.383 0-.166.06-.292.18-.378.12-.086.301-.152.542-.198l1.084-.223v.36zm.911.653v-1.918c0-.35-.076-.636-.227-.86-.152-.223-.36-.391-.624-.503-.264-.112-.568-.168-.912-.168-.504 0-.915.106-1.234.319-.318.212-.532.493-.64.842l.774.327c.086-.27.22-.464.404-.585.183-.12.404-.18.662-.18.275 0 .492.079.65.236.157.158.236.38.236.667v.164l-1.531.3c-.384.075-.68.215-.89.422-.21.206-.314.47-.314.79 0 .259.062.475.185.65.123.175.292.305.507.391.215.086.457.13.727.13.218 0 .433-.037.645-.108.212-.072.398-.18.559-.327.064-.059.118-.125.164-.196.021.078.05.15.09.213.083.135.197.235.344.301.146.066.31.1.494.1.2 0 .367-.032.499-.095l.052-.637c-.098.029-.198.043-.301.043-.213 0-.319-.106-.319-.318zM111.222 37.93c-.244-.117-.517-.176-.821-.176-.235 0-.457.038-.667.112-.209.075-.39.194-.541.357-.098.106-.18.23-.248.37l-.04-.753h-.818v4.3h.92v-2.287c0-.327.06-.588.177-.783.117-.195.265-.337.443-.425.178-.09.361-.134.55-.134.264 0 .483.082.658.245.175.164.263.458.263.882v2.502h.92v-2.786c0-.361-.072-.66-.215-.894-.144-.235-.337-.412-.58-.53M116.283 37.84l-.903 2.623-.284.886-.249-.808-.954-2.7h-1.033l1.342 3.259.456 1.066-.19.465c-.097.246-.207.411-.33.494-.124.083-.263.125-.418.125-.143 0-.276-.023-.4-.069-.123-.046-.239-.115-.348-.206l-.223.713c.132.092.285.165.46.22.175.054.365.081.572.081.252 0 .473-.043.662-.129.19-.086.357-.226.503-.421.146-.195.282-.459.408-.791l1.884-4.808h-.955z" mask="url(#hrg46c6dhf)"></path></g></g></g></svg> 